<svg width="165" height="72" viewBox="0 0 165 72" fill="none" xmlns="http://www.w3.org/2000/svg">
<path d="M51.583 13.8987H62.8726V25.1882H51.583V13.8987Z" fill="white"/>
<path d="M51.583 0H62.8726V25.2106H51.583V0Z" fill="url(#paint0_linear_63_169)"/>
<path fill-rule="evenodd" clip-rule="evenodd" d="M0 42.9467C0 26.9011 13.0076 13.8936 29.0532 13.8936H46.0777V25.1831H29.0532C19.2426 25.1831 11.2896 33.1362 11.2896 42.9467C11.2896 52.7573 19.2426 60.7104 29.0532 60.7104H29.9895C39.283 60.7104 46.8168 53.1765 46.8168 43.8831H58.1064C58.1064 59.4116 45.518 71.9999 29.9895 71.9999H29.0532C13.0076 71.9999 0 58.9924 0 42.9467Z" fill="white"/>
<path fill-rule="evenodd" clip-rule="evenodd" d="M53.5068 50.3906H32.7551V41.0098H62.8876V71.1422H53.5068V50.3906Z" fill="white"/>
<path fill-rule="evenodd" clip-rule="evenodd" d="M134.047 10.8849C130.946 10.8849 128.432 13.3992 128.432 16.5006C128.432 19.6021 130.946 22.1163 134.047 22.1163H134.343C137.281 22.1163 139.663 19.7346 139.663 16.7966H143.232C143.232 21.7057 139.252 25.6853 134.343 25.6853H134.047C128.975 25.6853 124.863 21.5732 124.863 16.5006C124.863 11.4281 128.975 7.31592 134.047 7.31592H134.604C138.835 7.31592 142.352 10.3645 143.09 14.3801H139.415C138.754 12.3518 136.849 10.8849 134.604 10.8849H134.047Z" fill="white"/>
<path fill-rule="evenodd" clip-rule="evenodd" d="M112.277 10.8844C109.175 10.8844 106.661 13.3987 106.661 16.5001C106.661 19.6016 109.175 22.1158 112.277 22.1158H112.573C115.511 22.1158 117.892 19.7341 117.892 16.7961H121.461C121.461 21.7052 117.482 25.6848 112.573 25.6848H112.277C107.204 25.6848 103.092 21.5727 103.092 16.5001C103.092 11.4276 107.204 7.31543 112.277 7.31543H112.833C117.064 7.31543 120.581 10.364 121.319 14.3796H117.644C116.984 12.3513 115.078 10.8844 112.833 10.8844H112.277Z" fill="white"/>
<path fill-rule="evenodd" clip-rule="evenodd" d="M121.203 18.9141C120.904 18.9141 113.439 18.9141 113.439 18.9141V15.9485H121.482C121.482 15.9485 121.572 17.5181 121.203 18.9141Z" fill="white"/>
<path fill-rule="evenodd" clip-rule="evenodd" d="M90.506 10.8844C87.4046 10.8844 84.8904 13.3987 84.8904 16.5001C84.8904 19.6016 87.4046 22.1158 90.506 22.1158H90.8021C93.74 22.1158 96.1217 19.7341 96.1217 16.7961H99.6908C99.6908 21.7052 95.7111 25.6848 90.8021 25.6848H90.506C85.4335 25.6848 81.3214 21.5727 81.3214 16.5001C81.3214 11.4276 85.4335 7.31543 90.506 7.31543H91.0627C95.2934 7.31543 98.8105 10.364 99.5483 14.3796H95.8738C95.2132 12.3513 93.3077 10.8844 91.0627 10.8844H90.506Z" fill="white"/>
<path fill-rule="evenodd" clip-rule="evenodd" d="M99.4322 18.9141C99.1331 18.9141 91.6676 18.9141 91.6676 18.9141V15.9485H99.7107C99.7107 15.9485 99.8011 17.5181 99.4322 18.9141Z" fill="white"/>
<path fill-rule="evenodd" clip-rule="evenodd" d="M148.034 16.5133L147.299 7.83154H148.32H151.003H157.783C160.686 7.83154 163.038 10.1861 163.038 13.0882C163.038 14.1903 162.699 15.1592 162.119 15.937C163.614 16.6715 164.609 18.0512 164.609 19.9398C164.609 22.8452 162.252 25.2012 159.347 25.2012H150.334L150.334 25.2015H146.606L148.034 16.5133ZM150.931 21.5402H159.202C160.086 21.5402 160.969 20.82 160.969 19.7143C160.969 18.6087 160.086 18.0404 159.202 18.0404H151.502L150.931 21.5402ZM151.59 14.8891L151.307 11.4937H157.59C158.471 11.4937 159.471 12.2076 159.471 13.0882C159.471 14.1761 158.675 14.8891 157.59 14.8891H151.59Z" fill="white"/>
<defs>
<linearGradient id="paint0_linear_63_169" x1="57.1101" y1="0.90274" x2="57.2278" y2="25.2106" gradientUnits="userSpaceOnUse">
<stop stop-color="white" stop-opacity="0"/>
<stop offset="1" stop-color="white"/>
</linearGradient>
</defs>
</svg>
