<svg width="214" height="72" viewBox="0 0 214 72" fill="none" xmlns="http://www.w3.org/2000/svg">
<path d="M51.027 0H62.2049V24.9615H51.027V0Z" fill="url(#paint0_linear_1_43)"/>
<path d="M62.193 13.7955H51.027V24.9615H62.193V13.7955Z" fill="white"/>
<path fill-rule="evenodd" clip-rule="evenodd" d="M28.7393 13.7914C12.8668 13.7914 0 26.6583 0 42.5307C0 58.4032 12.8668 71.27 28.7393 71.27H29.6644C39.3923 71.27 47.9567 66.2728 52.9257 58.7062V70.4216H62.2052V40.6158H32.3994V49.8953H45.0198C42.503 55.8904 36.5765 60.1039 29.6644 60.1039H28.7393C19.0356 60.1039 11.1661 52.2384 11.1661 42.5307C11.1661 32.823 19.0356 24.9575 28.7393 24.9575H45.5813V13.7914H28.7393Z" fill="white"/>
<path d="M90.6213 20.9419H92.415L95.6024 25.0868H98.8787L95.5257 20.8248C95.8852 20.748 96.2205 20.6389 96.5275 20.4935C97.1578 20.1945 97.6466 19.7784 97.994 19.2533C98.3414 18.7241 98.5192 18.11 98.5192 17.4111C98.5192 16.7122 98.3455 16.0861 97.994 15.5568C97.6466 15.0276 97.1578 14.6156 96.5275 14.3166C95.8973 14.0177 95.1661 13.8682 94.3299 13.8682H87.7894V25.0868H90.6173V20.9419H90.6213ZM90.6213 16.0174H93.9582C94.4874 16.0174 94.9076 16.1426 95.2146 16.3931C95.5257 16.6314 95.6792 16.9708 95.6792 17.4111C95.6792 17.8515 95.5257 18.1948 95.2146 18.4453C94.9035 18.6837 94.4874 18.8049 93.9582 18.8049H90.6213V16.0214V16.0174ZM103.096 22.8245H109.104L110.105 25.0827H113.111L107.936 13.8641H104.272L99.0807 25.0868H102.102L103.1 22.8285L103.096 22.8245ZM106.094 16.0255L108.09 20.5339H104.106L106.094 16.0255ZM117.082 13.8641H114.254V25.0868H117.082V13.8641ZM131.492 13.8641H128.753V21.8994L122.932 13.8641H119.268V25.0868H122.007V16.894L127.933 25.0868H131.496V13.8641H131.492ZM161.46 22.5861H154.321V13.8641H151.493V25.0868H161.46V22.5861ZM191.035 25.0868L192.033 22.8285H198.04L199.042 25.0868H202.048L196.869 13.8641H193.204L188.013 25.0868H191.035ZM195.03 16.0295L197.026 20.5379H193.043L195.03 16.0295ZM164.893 24.5939C165.891 25.0827 167.047 25.3251 168.364 25.3251C169.681 25.3251 170.832 25.0827 171.822 24.5939C172.82 24.1051 173.591 23.4224 174.141 22.5457C174.698 21.6691 174.977 20.647 174.977 19.4795C174.977 18.312 174.698 17.2899 174.141 16.4133C173.591 15.5366 172.82 14.8539 171.822 14.3651C170.836 13.8763 169.681 13.6339 168.364 13.6339C167.047 13.6339 165.891 13.8763 164.893 14.3651C163.908 14.8539 163.136 15.5366 162.591 16.4133C162.041 17.2899 161.767 18.312 161.767 19.4795C161.767 20.647 162.041 21.6691 162.591 22.5457C163.14 23.4224 163.908 24.1051 164.893 24.5939ZM165.071 17.6979C165.382 17.201 165.815 16.8213 166.372 16.5628C166.93 16.2921 167.592 16.1588 168.364 16.1588C169.135 16.1588 169.81 16.2921 170.367 16.5628C170.925 16.8213 171.353 17.201 171.656 17.6979C171.967 18.1948 172.121 18.7887 172.121 19.4795C172.121 20.1703 171.967 20.7601 171.656 21.2611C171.357 21.758 170.929 22.1458 170.367 22.4124C169.81 22.671 169.139 22.8002 168.364 22.8002C167.588 22.8002 166.934 22.671 166.372 22.4124C165.815 22.1417 165.378 21.758 165.071 21.2611C164.76 20.7642 164.607 20.1703 164.607 19.4795C164.607 18.7887 164.76 18.1989 165.071 17.6979ZM187.593 23.5799C187.872 23.0992 188.013 22.5578 188.013 21.9478C188.013 21.3903 187.872 20.8934 187.593 20.4652C187.323 20.0249 186.906 19.6815 186.337 19.431C186.111 19.33 185.848 19.2533 185.569 19.1886C185.682 19.1402 185.791 19.0876 185.888 19.027C186.369 18.7281 186.717 18.3645 186.935 17.9363C187.153 17.5081 187.262 17.0596 187.262 16.591C187.262 15.7427 186.971 15.0801 186.393 14.5994C185.824 14.1106 185.02 13.8682 183.986 13.8682H176.189L177.057 19.33L176.189 25.0908H184.268C185.097 25.0908 185.783 24.9575 186.333 24.6868C186.89 24.4162 187.31 24.0485 187.589 23.5799H187.593ZM183.061 15.8881C183.489 15.8881 183.82 15.9972 184.046 16.2153C184.285 16.4254 184.406 16.6961 184.406 17.0233C184.406 17.4313 184.272 17.7545 184.002 17.9969C183.731 18.2272 183.392 18.3403 182.984 18.3403H179.602L179.194 15.8881H183.056H183.061ZM184.737 22.7275C184.466 22.9578 184.087 23.0709 183.602 23.0709H179.186L179.619 20.3157H183.347C183.945 20.3157 184.394 20.445 184.693 20.7036C185.004 20.954 185.157 21.2934 185.157 21.7216C185.157 22.1498 185.016 22.4851 184.737 22.7235V22.7275ZM206.019 22.5942V13.8641H203.191V25.0868H213.157V22.5861H206.019V22.5942ZM181.857 34.237C181.267 33.9461 180.576 33.8007 179.784 33.8007C178.992 33.8007 178.298 33.9461 177.7 34.237C177.11 34.5198 176.645 34.9197 176.306 35.4328C175.975 35.9377 175.809 36.5356 175.809 37.2184C175.809 37.9011 175.975 38.4909 176.306 39.004C176.645 39.517 177.11 39.921 177.7 40.2119C178.298 40.4946 178.992 40.636 179.784 40.636C180.576 40.636 181.267 40.4946 181.857 40.2119C182.455 39.921 182.919 39.517 183.25 39.004C183.59 38.4909 183.755 37.893 183.755 37.2184C183.755 36.5437 183.586 35.9418 183.25 35.4328C182.919 34.9197 182.455 34.5198 181.857 34.237ZM181.937 38.4182C181.739 38.7494 181.453 39.004 181.085 39.1898C180.725 39.3756 180.289 39.4645 179.784 39.4645C179.279 39.4645 178.851 39.3716 178.483 39.1898C178.116 39.004 177.829 38.7494 177.631 38.4182C177.433 38.0788 177.332 37.6829 177.332 37.2224C177.332 36.7619 177.433 36.366 177.631 36.0347C177.829 35.6953 178.116 35.4368 178.483 35.251C178.851 35.0651 179.287 34.9763 179.784 34.9763C180.281 34.9763 180.725 35.0692 181.085 35.251C181.453 35.4368 181.739 35.6953 181.937 36.0347C182.135 36.366 182.236 36.7619 182.236 37.2224C182.236 37.6829 182.135 38.0829 181.937 38.4182ZM174.597 33.8007C174.161 33.8007 173.777 33.8855 173.446 34.0552C173.114 34.2248 172.836 34.4592 172.605 34.7581C172.391 35.0449 172.226 35.3802 172.096 35.764L171.797 33.9623H170.299L170.691 36.0468V40.4785H172.189V37.5294C172.189 37.0002 172.282 36.5558 172.464 36.1922C172.658 35.8246 172.917 35.5459 173.248 35.3641C173.579 35.1782 173.955 35.0894 174.375 35.0894C174.553 35.0894 174.738 35.1015 174.94 35.1257C175.138 35.15 175.324 35.1823 175.494 35.2308V33.9178C175.373 33.8774 175.227 33.8532 175.07 33.837C174.908 33.8128 174.751 33.8007 174.597 33.8007ZM154.733 40.4785H156.232V31.6111H154.733V40.4785ZM168.093 36.172C167.887 36.0751 167.649 36.0024 167.382 35.9539C167.507 35.9014 167.628 35.8489 167.733 35.7842C168.101 35.5539 168.368 35.2792 168.529 34.9561C168.699 34.6248 168.784 34.2895 168.784 33.9421C168.784 33.2876 168.566 32.7786 168.129 32.411C167.701 32.0353 167.087 31.8454 166.287 31.8454H160.736L161.415 36.0468L160.736 40.4785H166.493C167.123 40.4785 167.649 40.3775 168.073 40.1795C168.497 39.9735 168.812 39.6907 169.03 39.3393C169.252 38.9878 169.366 38.5798 169.366 38.1192C169.366 37.6951 169.26 37.3153 169.054 36.98C168.856 36.6407 168.537 36.374 168.097 36.172H168.093ZM165.952 33.0614C166.376 33.0614 166.695 33.1664 166.917 33.3724C167.14 33.5704 167.253 33.8289 167.253 34.1441C167.253 34.5682 167.119 34.8914 166.849 35.1217C166.578 35.3439 166.243 35.457 165.835 35.457H162.781L162.393 33.0614H165.948H165.952ZM167.426 38.9353C167.164 39.1494 166.796 39.2585 166.319 39.2585H162.389L162.789 36.6326H165.988C166.594 36.6326 167.051 36.7497 167.358 36.9881C167.673 37.2264 167.83 37.5617 167.83 37.99C167.83 38.398 167.697 38.7131 167.426 38.9353ZM212.099 36.9315C211.731 36.7538 211.214 36.6366 210.556 36.576L208.907 36.4265C208.406 36.3821 208.067 36.3013 207.881 36.1842C207.695 36.063 207.606 35.9135 207.606 35.7479C207.606 35.4772 207.756 35.2752 208.055 35.1378C208.362 35.0005 208.786 34.9318 209.323 34.9318C209.828 34.9318 210.232 34.9884 210.531 35.1055C210.838 35.2146 211.065 35.352 211.21 35.5216C211.363 35.6832 211.456 35.8529 211.485 36.0266H213.004C212.967 35.5903 212.79 35.2065 212.474 34.8753C212.159 34.5359 211.739 34.2774 211.206 34.0915C210.677 33.8976 210.075 33.8047 209.396 33.8047C208.717 33.8047 208.172 33.8855 207.679 34.0471C207.186 34.2006 206.803 34.4268 206.528 34.7258C206.253 35.0247 206.112 35.3964 206.112 35.8448C206.112 36.1518 206.197 36.4427 206.366 36.7215C206.536 36.9921 206.819 37.2224 207.219 37.4123C207.619 37.5981 208.164 37.7193 208.855 37.7799L210.131 37.897C210.713 37.9496 211.109 38.0304 211.319 38.1394C211.533 38.2485 211.642 38.4061 211.642 38.6121C211.642 38.9191 211.485 39.1494 211.17 39.3029C210.854 39.4483 210.386 39.5211 209.764 39.5211C209.335 39.5211 208.952 39.4726 208.612 39.3716C208.281 39.2706 208.014 39.1292 207.804 38.9474C207.606 38.7535 207.481 38.5353 207.437 38.2929H205.918C205.942 38.7616 206.108 39.1777 206.415 39.5372C206.73 39.8887 207.17 40.1674 207.74 40.3654C208.309 40.5593 208.98 40.6522 209.756 40.6522C210.531 40.6522 211.133 40.5674 211.634 40.3977C212.135 40.2199 212.507 39.9735 212.753 39.6503C213 39.3271 213.121 38.9474 213.121 38.5111C213.121 38.1718 213.044 37.8688 212.891 37.6021C212.737 37.3315 212.47 37.1133 212.095 36.9477L212.099 36.9315ZM204.694 33.8007C204.257 33.8007 203.874 33.8855 203.542 34.0552C203.211 34.2248 202.932 34.4592 202.702 34.7581C202.488 35.0449 202.322 35.3802 202.193 35.764L201.894 33.9623H200.395L200.787 36.0468V40.4785H202.286V37.5294C202.286 37.0002 202.379 36.5558 202.561 36.1922C202.755 35.8246 203.013 35.5459 203.344 35.3641C203.676 35.1782 204.051 35.0894 204.472 35.0894C204.649 35.0894 204.835 35.1015 205.037 35.1257C205.235 35.15 205.421 35.1823 205.591 35.2308V33.9178C205.469 33.8774 205.324 33.8532 205.166 33.837C205.005 33.8128 204.847 33.8007 204.694 33.8007ZM191.908 33.9623H190.179L186.47 38.4828V31.6111H184.971V40.4785H186.365L188.656 37.7839L190.34 40.4785H192.102L189.605 36.6649L191.904 33.9582L191.908 33.9623ZM199.038 35.6671C198.747 35.0772 198.331 34.6208 197.794 34.2976C197.265 33.9663 196.634 33.8007 195.907 33.8007C195.18 33.8007 194.53 33.9461 193.96 34.237C193.398 34.5198 192.958 34.9197 192.635 35.4328C192.32 35.9377 192.162 36.5316 192.162 37.2062C192.162 37.8809 192.332 38.4869 192.667 39.004C193.007 39.517 193.471 39.921 194.061 40.2119C194.651 40.4946 195.329 40.636 196.089 40.636C196.679 40.636 197.26 40.5472 197.826 40.3694C198.404 40.1917 198.889 39.9493 199.288 39.6423V38.5596C198.889 38.8424 198.428 39.0646 197.907 39.2261C197.386 39.3797 196.873 39.4564 196.376 39.4564C195.822 39.4564 195.342 39.3635 194.938 39.1817C194.538 38.9878 194.227 38.7171 194.004 38.3657C193.891 38.1758 193.806 37.9698 193.754 37.7435H199.474C199.474 36.9436 199.329 36.2488 199.038 35.659V35.6671ZM193.734 36.6124C193.778 36.3862 193.851 36.1761 193.96 35.9902C194.146 35.6671 194.396 35.4166 194.719 35.2429C195.051 35.0651 195.434 34.9763 195.871 34.9763C196.287 34.9763 196.642 35.0611 196.941 35.2308C197.248 35.3924 197.491 35.6267 197.668 35.9337C197.79 36.1316 197.87 36.3619 197.923 36.6124H193.738H193.734ZM104.466 34.1723C104.058 33.9259 103.569 33.8047 102.991 33.8047C102.478 33.8047 102.01 33.934 101.585 34.1966C101.169 34.4511 100.83 34.8147 100.559 35.2914C100.507 35.3883 100.458 35.4934 100.414 35.5984C100.373 35.4691 100.325 35.3479 100.272 35.2348C100.066 34.7743 99.7594 34.4228 99.3514 34.1764C98.9514 33.9299 98.4667 33.8087 97.889 33.8087C97.3678 33.8087 96.8952 33.938 96.471 34.2006C96.0549 34.4551 95.7155 34.8187 95.4449 35.2954C95.4085 35.3641 95.3762 35.4368 95.3439 35.5095L95.0894 33.9703H93.5906L93.9825 36.0993V40.4866H95.4812V37.3072C95.4812 36.8548 95.558 36.4589 95.7115 36.1195C95.8731 35.7802 96.0953 35.5216 96.3781 35.3358C96.6689 35.1419 97.0123 35.049 97.4042 35.049C97.9576 35.049 98.3737 35.2267 98.6606 35.5782C98.9514 35.9256 99.0969 36.4387 99.0969 37.1214V40.4825H100.596V37.3032C100.596 36.8507 100.672 36.4548 100.826 36.1155C100.988 35.7761 101.21 35.5176 101.492 35.3318C101.783 35.1378 102.127 35.0449 102.519 35.0449C103.072 35.0449 103.488 35.2227 103.775 35.5741C104.066 35.9216 104.211 36.4346 104.211 37.1174V40.4785H105.71V36.875C105.71 36.2286 105.601 35.6792 105.387 35.2267C105.181 34.7662 104.874 34.4147 104.466 34.1683V34.1723ZM143.337 31.397C143.054 31.397 142.82 31.4778 142.634 31.6394C142.448 31.7929 142.359 31.9949 142.359 32.2494C142.359 32.5039 142.452 32.7099 142.634 32.8715C142.82 33.025 143.054 33.1018 143.337 33.1018C143.62 33.1018 143.862 33.025 144.04 32.8715C144.226 32.7099 144.315 32.5039 144.315 32.2494C144.315 31.9949 144.222 31.7929 144.04 31.6394C143.862 31.4778 143.628 31.397 143.337 31.397ZM127.02 35.6711C126.729 35.0813 126.313 34.6248 125.776 34.3016C125.247 33.9703 124.616 33.8047 123.889 33.8047C123.162 33.8047 122.512 33.9501 121.942 34.241C121.381 34.5238 120.94 34.9237 120.617 35.4368C120.302 35.9418 120.144 36.5356 120.144 37.2103C120.144 37.8849 120.314 38.4909 120.649 39.008C120.989 39.5211 121.453 39.925 122.043 40.2159C122.633 40.4987 123.312 40.6401 124.071 40.6401C124.661 40.6401 125.243 40.5512 125.808 40.3735C126.386 40.1957 126.871 39.9533 127.271 39.6463V38.5636C126.871 38.8464 126.41 39.0686 125.889 39.2302C125.368 39.3837 124.855 39.4605 124.358 39.4605C123.804 39.4605 123.324 39.3675 122.92 39.1857C122.52 38.9918 122.209 38.7212 121.986 38.3697C121.873 38.1798 121.789 37.9738 121.736 37.7476H127.456C127.456 36.9477 127.311 36.2528 127.02 35.663V35.6711ZM121.716 36.6164C121.76 36.3902 121.833 36.1801 121.942 35.9943C122.128 35.6711 122.378 35.4206 122.702 35.2469C123.033 35.0692 123.417 34.9803 123.853 34.9803C124.269 34.9803 124.624 35.0651 124.923 35.2348C125.23 35.3964 125.473 35.6307 125.651 35.9377C125.772 36.1357 125.853 36.366 125.905 36.6164H121.72H121.716ZM132.672 33.8047C132.236 33.8047 131.852 33.8895 131.52 34.0592C131.189 34.2289 130.91 34.4632 130.68 34.7621C130.466 35.049 130.3 35.3843 130.171 35.7681L129.872 33.9663H128.373L128.765 36.0508V40.4825H130.264V37.5335C130.264 37.0042 130.357 36.5599 130.539 36.1963C130.733 35.8287 130.991 35.5499 131.323 35.3681C131.654 35.1823 132.029 35.0934 132.45 35.0934C132.627 35.0934 132.813 35.1055 133.015 35.1298C133.217 35.154 133.399 35.1863 133.569 35.2348V33.9219C133.447 33.8815 133.302 33.8572 133.144 33.8411C132.983 33.8168 132.825 33.8047 132.672 33.8047ZM142.586 33.9219V40.4866H144.084V33.9219L143.337 34.0592L142.59 33.9219H142.586ZM117.765 34.1764C117.357 33.9299 116.868 33.8087 116.29 33.8087C115.777 33.8087 115.309 33.938 114.884 34.2006C114.468 34.4551 114.129 34.8187 113.858 35.2954C113.806 35.3924 113.757 35.4974 113.713 35.6024C113.673 35.4732 113.624 35.352 113.572 35.2388C113.366 34.7783 113.058 34.4268 112.65 34.1804C112.251 33.934 111.766 33.8128 111.188 33.8128C110.667 33.8128 110.194 33.9421 109.77 34.2046C109.354 34.4592 109.015 34.8227 108.744 35.2994C108.708 35.3681 108.675 35.4408 108.643 35.5135L108.388 33.9744H106.89L107.282 36.1034V40.4906H108.78V37.3113C108.78 36.8588 108.857 36.4629 109.011 36.1236C109.172 35.7842 109.394 35.5257 109.677 35.3398C109.968 35.1459 110.311 35.053 110.703 35.053C111.257 35.053 111.673 35.2308 111.96 35.5822C112.251 35.9297 112.396 36.4427 112.396 37.1254V40.4866H113.895V37.3072C113.895 36.8548 113.971 36.4589 114.125 36.1195C114.287 35.7802 114.509 35.5216 114.792 35.3358C115.082 35.1419 115.426 35.049 115.818 35.049C116.371 35.049 116.787 35.2267 117.074 35.5782C117.365 35.9256 117.51 36.4387 117.51 37.1214V40.4825H119.009V36.879C119.009 36.2326 118.9 35.6832 118.686 35.2308C118.48 34.7702 118.173 34.4188 117.765 34.1723V34.1764ZM90.7829 34.245C90.1931 33.9542 89.5023 33.8087 88.7105 33.8087C87.9187 33.8087 87.2238 33.9542 86.6259 34.245C86.0361 34.5278 85.5715 34.9278 85.2322 35.4408C84.9009 35.9458 84.7353 36.5437 84.7353 37.2264C84.7353 37.9092 84.9009 38.499 85.2322 39.012C85.5715 39.5251 86.0361 39.9291 86.6259 40.2199C87.2238 40.5027 87.9187 40.6441 88.7105 40.6441C89.5023 40.6441 90.1931 40.5027 90.7829 40.2199C91.3808 39.9291 91.8454 39.5251 92.1767 39.012C92.516 38.499 92.6816 37.9011 92.6816 37.2264C92.6816 36.5518 92.512 35.9499 92.1767 35.4408C91.8454 34.9278 91.3808 34.5278 90.7829 34.245ZM90.8637 38.4263C90.6658 38.7575 90.3789 39.012 90.0113 39.1979C89.6518 39.3837 89.2155 39.4726 88.7105 39.4726C88.2055 39.4726 87.7773 39.3797 87.4097 39.1979C87.042 39.012 86.7552 38.7575 86.5573 38.4263C86.3593 38.0869 86.2583 37.691 86.2583 37.2305C86.2583 36.7699 86.3593 36.374 86.5573 36.0428C86.7552 35.7034 87.042 35.4449 87.4097 35.259C87.7773 35.0732 88.2136 34.9843 88.7105 34.9843C89.2074 34.9843 89.6518 35.0773 90.0113 35.259C90.3789 35.4449 90.6658 35.7034 90.8637 36.0428C91.0617 36.374 91.1627 36.7699 91.1627 37.2305C91.1627 37.691 91.0617 38.091 90.8637 38.4263ZM151.744 33.9703L151.574 35.5903C151.542 35.5378 151.514 35.4812 151.477 35.4328C151.138 34.9197 150.722 34.5198 150.221 34.237C149.728 33.9542 149.179 33.8128 148.573 33.8128C147.934 33.8128 147.373 33.9582 146.88 34.2491C146.387 34.5319 146.003 34.9318 145.729 35.4449C145.454 35.9499 145.312 36.5477 145.312 37.2305C145.312 37.9132 145.45 38.503 145.729 39.0161C146.003 39.5291 146.387 39.9331 146.88 40.224C147.373 40.5068 147.934 40.6482 148.573 40.6482C149.211 40.6482 149.728 40.5068 150.221 40.224C150.722 39.9412 151.138 39.5413 151.477 39.0282C151.51 38.9757 151.542 38.9191 151.57 38.8666L151.74 40.4906H153.283L152.936 37.2305L153.283 33.9703H151.74H151.744ZM151.017 38.3939C150.746 38.7252 150.439 38.9838 150.083 39.1777C149.732 39.3635 149.348 39.4524 148.932 39.4524C148.516 39.4524 148.165 39.3595 147.849 39.1777C147.534 38.9838 147.284 38.7252 147.102 38.3939C146.924 38.0546 146.835 37.6668 146.835 37.2305C146.835 36.7942 146.924 36.4104 147.102 36.0791C147.288 35.7398 147.534 35.4812 147.849 35.2954C148.165 35.1015 148.524 35.0086 148.932 35.0086C149.34 35.0086 149.732 35.1055 150.083 35.2954C150.435 35.4812 150.746 35.7398 151.017 36.0791C151.291 36.4104 151.514 36.7942 151.671 37.2305C151.51 37.6668 151.291 38.0546 151.017 38.3939ZM77.4192 33.4169C77.9201 33.1624 78.5059 33.0371 79.1805 33.0371C79.7623 33.0371 80.2794 33.1301 80.7238 33.3118C81.1681 33.4896 81.5317 33.7401 81.8064 34.0713C82.0892 34.4026 82.2751 34.7985 82.3599 35.259H83.891C83.8142 34.544 83.5638 33.9178 83.1436 33.3805C82.7275 32.8432 82.1821 32.4231 81.5075 32.1241C80.8328 31.8252 80.0612 31.6757 79.1927 31.6757C78.2272 31.6757 77.3788 31.8656 76.6476 32.2413C75.9164 32.617 75.3508 33.1422 74.9428 33.8209C74.5348 34.4874 74.3328 35.2671 74.3328 36.1599C74.3328 37.0527 74.5348 37.8324 74.9428 38.5111C75.3508 39.1777 75.9164 39.7028 76.6476 40.0785C77.3788 40.4543 78.2272 40.6441 79.1927 40.6441C80.0612 40.6441 80.8328 40.4946 81.5075 40.1957C82.1821 39.8968 82.7275 39.4766 83.1436 38.9393C83.5678 38.3939 83.8142 37.7678 83.891 37.0608H82.3599C82.2751 37.5213 82.0892 37.9213 81.8064 38.2566C81.5317 38.5879 81.1681 38.8383 80.7238 39.0161C80.2794 39.1938 79.7623 39.2827 79.1805 39.2827C78.5059 39.2827 77.9161 39.1575 77.4192 38.903C76.9263 38.6485 76.5466 38.2889 76.28 37.8203C76.0093 37.3517 75.876 36.7982 75.876 36.164C75.876 35.5297 76.0093 34.9722 76.28 34.5076C76.5506 34.039 76.9304 33.6795 77.4192 33.425V33.4169ZM136.493 35.2469C136.841 35.0611 137.241 34.9722 137.701 34.9722C138.279 34.9722 138.768 35.1096 139.176 35.3883C139.584 35.6671 139.838 36.0468 139.948 36.5397H141.454C141.378 35.9943 141.168 35.5176 140.82 35.1136C140.473 34.6975 140.032 34.3784 139.495 34.1481C138.958 33.9178 138.36 33.8007 137.697 33.8007C136.946 33.8007 136.279 33.9461 135.706 34.237C135.136 34.5198 134.692 34.9197 134.369 35.4328C134.045 35.9458 133.884 36.5437 133.884 37.2184C133.884 37.893 134.045 38.4909 134.369 39.004C134.692 39.517 135.136 39.921 135.706 40.2119C136.283 40.4946 136.946 40.636 137.697 40.636C138.356 40.636 138.958 40.5189 139.495 40.2886C140.032 40.0583 140.473 39.7392 140.82 39.3312C141.168 38.9151 141.378 38.4424 141.454 37.9051H139.948C139.847 38.3737 139.596 38.7494 139.188 39.0322C138.78 39.315 138.287 39.4564 137.701 39.4564C137.241 39.4564 136.837 39.3675 136.493 39.1898C136.146 39.004 135.879 38.7454 135.686 38.4061C135.5 38.0667 135.411 37.6708 135.411 37.2103C135.411 36.7497 135.504 36.3417 135.686 36.0145C135.879 35.6751 136.146 35.4206 136.493 35.2429V35.2469ZM86.4441 19.5603C86.4603 19.3785 86.4643 19.221 86.4643 19.1119C86.4643 19.0553 86.4643 19.0149 86.4643 18.9826C86.4643 18.9664 86.4643 18.9543 86.4643 18.9462V18.9382C86.4643 18.9382 86.4643 18.9382 86.4159 18.9382H86.4643L86.4603 18.821H81.156V20.9338H81.2772H83.3658C82.8649 21.9923 81.7903 22.7275 80.542 22.7275H80.3561C78.5261 22.7275 77.0435 21.2449 77.0435 19.4149C77.0435 17.5848 78.5221 16.0982 80.3521 16.0982H80.7036C81.762 16.0982 82.6912 16.6557 83.2163 17.4919L83.285 17.5969H86.1896L86.0927 17.298C85.3494 15.0317 83.2204 13.3915 80.7036 13.3915H80.3521C77.0273 13.3915 74.3328 16.0861 74.3328 19.4108C74.3328 22.7356 77.0273 25.4302 80.3481 25.4302H80.5339C83.4385 25.4302 85.8422 23.3012 86.2826 20.5177C86.3714 20.1744 86.4159 19.835 86.4361 19.5603H86.4441ZM144.113 25.4342H144.298C147.207 25.4342 149.607 23.3052 150.051 20.5177C150.14 20.1744 150.184 19.835 150.205 19.5603C150.221 19.3785 150.225 19.221 150.225 19.1119C150.225 19.0553 150.225 19.0149 150.225 18.9826C150.225 18.9664 150.225 18.9543 150.225 18.9462V18.9382C150.225 18.9382 150.225 18.9382 150.176 18.9382H150.225L150.221 18.821H144.917V20.9338H145.038H147.126C146.625 21.9923 145.551 22.7275 144.302 22.7275H144.117C142.287 22.7275 140.804 21.2449 140.804 19.4149C140.804 17.5848 142.287 16.1022 144.117 16.1022H144.468C145.527 16.1022 146.456 16.6597 146.981 17.4959L147.05 17.601H149.954L149.857 17.302C149.118 15.0357 146.985 13.3955 144.472 13.3955H144.121C140.796 13.3955 138.105 16.0901 138.105 19.4149C138.105 22.7396 140.8 25.4342 144.121 25.4342H144.113Z" fill="#FFFFFE"/>
<defs>
<linearGradient id="paint0_linear_1_43" x1="56.5598" y1="0.893527" x2="56.6764" y2="24.9612" gradientUnits="userSpaceOnUse">
<stop stop-color="white" stop-opacity="0"/>
<stop offset="0.75" stop-color="white" stop-opacity="0.74"/>
</linearGradient>
</defs>
</svg>
