<svg width="60" height="60" viewBox="0 0 60 60" fill="none" xmlns="http://www.w3.org/2000/svg">
<circle cx="30" cy="30" r="30" fill="#EEFAF8"/>
<path fill-rule="evenodd" clip-rule="evenodd" d="M32.9536 16.7985C27.3087 16.7985 22.7341 21.3699 22.7341 27.0071C22.7341 32.6443 27.3087 37.2157 32.9536 37.2157C38.5985 37.2157 43.1731 32.6443 43.1731 27.0071C43.1731 21.3699 38.5985 16.7985 32.9536 16.7985ZM20.9357 27.0071C20.9357 20.3749 26.3171 15 32.9536 15C39.5901 15 44.9716 20.3749 44.9716 27.0071C44.9716 33.6392 39.5901 39.0141 32.9536 39.0141C26.3171 39.0141 20.9357 33.6392 20.9357 27.0071Z" fill="#01695B"/>
<path fill-rule="evenodd" clip-rule="evenodd" d="M27.018 22.7843C21.3731 22.7843 16.7985 27.3557 16.7985 32.9929C16.7985 38.6301 21.3731 43.2015 27.018 43.2015C32.6629 43.2015 37.2375 38.6301 37.2375 32.9929C37.2375 27.3557 32.6629 22.7843 27.018 22.7843ZM15 32.9929C15 26.3608 20.3815 20.9858 27.018 20.9858C33.6545 20.9858 39.0359 26.3608 39.0359 32.9929C39.0359 39.6251 33.6545 45 27.018 45C20.3815 45 15 39.6251 15 32.9929Z" fill="#01695B"/>
<path fill-rule="evenodd" clip-rule="evenodd" d="M38.2017 16.3874C38.5527 16.7388 38.5524 17.3081 38.2011 17.6591L23.5731 32.2728C23.2217 32.6238 22.6524 32.6235 22.3014 32.2722C21.9503 31.9208 21.9506 31.3514 22.302 31.0004L27.977 25.3309L36.93 16.3868C37.2813 16.0358 37.8507 16.0361 38.2017 16.3874Z" fill="#01695B"/>
<path fill-rule="evenodd" clip-rule="evenodd" d="M33.8193 15.3894C34.1703 15.7407 34.17 16.3101 33.8187 16.6611L26.3608 24.1116L26.3608 24.1116L22.5319 27.9368C22.1805 28.2878 21.6112 28.2875 21.2602 27.9362C20.9092 27.5848 20.9094 27.0155 21.2608 26.6645L25.0897 22.8393L25.0897 22.8393L32.5476 15.3887C32.8989 15.0377 33.4683 15.038 33.8193 15.3894Z" fill="#01695B"/>
<path fill-rule="evenodd" clip-rule="evenodd" d="M43.5499 21.7969C43.9009 22.1482 43.9006 22.7176 43.5492 23.0686L29.0207 37.5829C28.6694 37.9339 28.1 37.9336 27.749 37.5822C27.398 37.2309 27.3983 36.6615 27.7496 36.3105L42.2781 21.7963C42.6295 21.4453 43.1989 21.4455 43.5499 21.7969Z" fill="#01695B"/>
<path fill-rule="evenodd" clip-rule="evenodd" d="M41.4515 18.517C41.8025 18.8683 41.8022 19.4377 41.4509 19.7887L32.1663 29.0642C31.815 29.4152 31.2456 29.4149 30.8946 29.0636C30.5436 28.7122 30.5439 28.1428 30.8952 27.7918L40.1798 18.5164C40.5311 18.1654 41.1005 18.1656 41.4515 18.517Z" fill="#01695B"/>
<path fill-rule="evenodd" clip-rule="evenodd" d="M28.5144 31.4414C28.8654 31.7927 28.8652 32.3621 28.5138 32.7131L25.7268 35.4974C25.3754 35.8484 24.8061 35.8481 24.455 35.4968C24.104 35.1454 24.1043 34.5761 24.4557 34.2251L27.2427 31.4407C27.5941 31.0897 28.1634 31.09 28.5144 31.4414Z" fill="#01695B"/>
<path fill-rule="evenodd" clip-rule="evenodd" d="M44.5821 26.1416C44.9331 26.493 44.9328 27.0623 44.5815 27.4133L33.2947 38.6891C32.9433 39.0401 32.3739 39.0398 32.0229 38.6884C31.6719 38.3371 31.6722 37.7677 32.0236 37.4167L43.3104 26.141C43.6617 25.79 44.2311 25.7903 44.5821 26.1416Z" fill="#01695B"/>
</svg>
