<svg width="20" height="20" viewBox="0 0 20 20" fill="none" xmlns="http://www.w3.org/2000/svg">
<g clip-path="url(#clip0_63_361)">
<path fill-rule="evenodd" clip-rule="evenodd" d="M11.3333 12.0498V12.0433C11.0624 11.9734 10.788 11.9207 10.5118 11.8854C9.65764 11.7697 8.78757 11.8205 7.95013 12.0368V12.0564C7.09224 12.285 6.28735 12.683 5.58351 13.2284C4.77911 13.8516 4.12806 14.6507 3.68025 15.5645C3.23243 16.4783 2.99974 17.4824 3 18.5H11.3333V18.4934H16.2835C16.2837 17.4758 16.051 16.4717 15.6032 15.5579C15.1554 14.6442 14.5043 13.845 13.6999 13.2218C12.9961 12.6765 12.1912 12.2784 11.3333 12.0498ZM4.66667 6C4.66667 8.7625 6.90417 11 9.66667 11C12.4292 11 14.6667 8.7625 14.6667 6C14.6667 3.2375 12.4292 1 9.66667 1C6.90417 1 4.66667 3.2375 4.66667 6Z" fill="#01695B"/>
</g>
<defs>
<clipPath id="clip0_63_361">
<rect width="20" height="20" fill="white"/>
</clipPath>
</defs>
</svg>
